<svg width="41" height="41" viewBox="0 0 41 41" fill="none" xmlns="http://www.w3.org/2000/svg">
<rect width="41" height="41" rx="20.5" fill="white"/>
<path fill-rule="evenodd" clip-rule="evenodd" d="M15.7982 15C13.6215 15 12 16.6068 12 18.4194C12 19.2985 12.3784 20.1601 13.0828 20.8089L20.5 27.6405L27.9172 20.8089C28.6216 20.1601 29 19.2985 29 18.4194C29 16.6068 27.3785 15 25.2018 15C24.1691 15 23.1936 15.3786 22.4864 16.03L21.1775 17.2355C20.7946 17.5882 20.2054 17.5882 19.8225 17.2355L18.5136 16.03C17.8064 15.3786 16.8309 15 15.7982 15ZM10 18.4194C10 15.3505 12.675 13 15.7982 13C17.3107 13 18.7761 13.5526 19.8686 14.5589L20.5 15.1405L21.1314 14.5589C22.2239 13.5526 23.6893 13 25.2018 13C28.325 13 31 15.3505 31 18.4194C31 19.8845 30.3674 21.2712 29.2721 22.28L21.1775 29.7355C20.7946 30.0882 20.2054 30.0882 19.8225 29.7355L11.7279 22.28C10.6326 21.2712 10 19.8845 10 18.4194Z" fill="#77BE1D"/>
</svg>
