<svg width="12" height="11" viewBox="0 0 12 11" fill="none" xmlns="http://www.w3.org/2000/svg">
<path fill-rule="evenodd" clip-rule="evenodd" d="M0.31081 5.39978C0.31081 5.58639 0.382885 5.76536 0.511181 5.89731C0.639477 6.02926 0.813484 6.10339 0.994922 6.10339H8.92103L5.98346 9.12328C5.91985 9.1887 5.8694 9.26636 5.83498 9.35184C5.80055 9.43731 5.78284 9.52892 5.78284 9.62144C5.78284 9.71395 5.80055 9.80556 5.83498 9.89104C5.8694 9.97651 5.91985 10.0542 5.98346 10.1196C6.04707 10.185 6.12258 10.2369 6.20568 10.2723C6.28879 10.3077 6.37786 10.3259 6.46781 10.3259C6.55776 10.3259 6.64683 10.3077 6.72994 10.2723C6.81305 10.2369 6.88856 10.185 6.95216 10.1196L11.0568 5.89794C11.1205 5.83258 11.1711 5.75494 11.2056 5.66945C11.2401 5.58397 11.2578 5.49233 11.2578 5.39978C11.2578 5.30724 11.2401 5.2156 11.2056 5.13011C11.1711 5.04463 11.1205 4.96699 11.0568 4.90163L6.95216 0.679976C6.8237 0.547857 6.64948 0.473633 6.46781 0.473633C6.28614 0.473633 6.11192 0.547857 5.98346 0.679976C5.855 0.812095 5.78284 0.991286 5.78284 1.17813C5.78284 1.36498 5.855 1.54417 5.98346 1.67629L8.92103 4.69618H0.994922C0.813484 4.69618 0.639477 4.77031 0.511181 4.90226C0.382885 5.03421 0.31081 5.21318 0.31081 5.39978Z" fill="#366EDC"/>
</svg>
