<svg width="100" height="38" viewBox="0 0 100 38" fill="none" xmlns="http://www.w3.org/2000/svg">
<rect width="100" height="38" rx="8" fill="#FF4C00"/>
<path d="M16.12 24V12.48H18.296V17.216H23.448V12.48H25.624V24H23.448V19.248H18.296V24H16.12ZM31.758 24.24C30.8887 24.24 30.126 24.0453 29.47 23.656C28.814 23.2667 28.302 22.7307 27.934 22.048C27.5713 21.36 27.39 20.5707 27.39 19.68C27.39 18.7787 27.5767 17.9867 27.95 17.304C28.3233 16.616 28.838 16.08 29.494 15.696C30.15 15.312 30.9047 15.12 31.758 15.12C32.6273 15.12 33.39 15.3147 34.046 15.704C34.7073 16.0933 35.222 16.632 35.59 17.32C35.958 18.0027 36.142 18.7893 36.142 19.68C36.142 20.576 35.9553 21.368 35.582 22.056C35.214 22.7387 34.6993 23.2747 34.038 23.664C33.382 24.048 32.622 24.24 31.758 24.24ZM31.758 22.208C32.4567 22.208 32.9767 21.9733 33.318 21.504C33.6647 21.0293 33.838 20.4213 33.838 19.68C33.838 18.912 33.662 18.2987 33.31 17.84C32.9633 17.3813 32.446 17.152 31.758 17.152C31.2833 17.152 30.894 17.2587 30.59 17.472C30.286 17.6853 30.0593 17.9813 29.91 18.36C29.766 18.7387 29.694 19.1787 29.694 19.68C29.694 20.4533 29.8673 21.0693 30.214 21.528C30.566 21.9813 31.0807 22.208 31.758 22.208ZM37.8853 24V15.36H41.9333C42.2533 15.36 42.5333 15.3787 42.7733 15.416C43.0133 15.448 43.2133 15.488 43.3733 15.536C43.7679 15.6533 44.1279 15.8827 44.4533 16.224C44.7786 16.5653 44.9413 17.0613 44.9413 17.712C44.9413 18.096 44.8799 18.408 44.7573 18.648C44.6346 18.8827 44.4719 19.0773 44.2693 19.232C44.1733 19.3013 44.0773 19.36 43.9813 19.408C43.8853 19.456 43.7893 19.4933 43.6933 19.52C43.9173 19.552 44.1199 19.6107 44.3013 19.696C44.5893 19.824 44.8399 20.0267 45.0533 20.304C45.2666 20.576 45.3733 20.9813 45.3733 21.52C45.3733 22.096 45.2319 22.5867 44.9493 22.992C44.6719 23.3973 44.2533 23.68 43.6933 23.84C43.5013 23.8933 43.2746 23.9333 43.0133 23.96C42.7573 23.9867 42.4879 24 42.2053 24H37.8853ZM40.0933 22.352H42.0453C42.1573 22.352 42.2719 22.3413 42.3893 22.32C42.5119 22.2933 42.6213 22.2613 42.7173 22.224C42.8719 22.16 42.9813 22.0507 43.0453 21.896C43.1146 21.7413 43.1493 21.584 43.1493 21.424C43.1493 21.2 43.0986 21.024 42.9973 20.896C42.9013 20.768 42.7919 20.6773 42.6693 20.624C42.5679 20.576 42.4559 20.5493 42.3333 20.544C42.2159 20.5333 42.1199 20.528 42.0453 20.528H40.0933V22.352ZM40.0933 18.848H41.4213C41.5919 18.848 41.7519 18.84 41.9013 18.824C42.0559 18.8027 42.1839 18.768 42.2853 18.72C42.4239 18.656 42.5279 18.5547 42.5973 18.416C42.6666 18.272 42.7013 18.112 42.7013 17.936C42.7013 17.7493 42.6613 17.5813 42.5813 17.432C42.5066 17.2773 42.3813 17.1733 42.2053 17.12C42.0879 17.0773 41.9386 17.0533 41.7573 17.048C41.5813 17.0427 41.4693 17.04 41.4213 17.04H40.0933V18.848ZM54.6754 15.36V24H52.5954V18.72L48.6914 24H46.9634V15.36H49.0434V20.464L52.9634 15.36H54.6754ZM56.9009 24V15.36H59.0769V18.656H62.6289V15.36H64.8049V24H62.6289V20.688H59.0769V24H56.9009ZM67.0259 24L67.0419 15.36H69.2499V19.52L72.1779 15.36H74.8659L71.7459 19.68L75.0739 24H72.2419L69.2499 19.84V24H67.0259ZM78.27 24.24C77.6513 24.24 77.126 24.1227 76.694 23.888C76.2673 23.648 75.942 23.3307 75.718 22.936C75.4993 22.536 75.39 22.096 75.39 21.616C75.39 21.216 75.4513 20.8507 75.574 20.52C75.6967 20.1893 75.894 19.8987 76.166 19.648C76.4433 19.392 76.814 19.1787 77.278 19.008C77.598 18.8907 77.9793 18.7867 78.422 18.696C78.8647 18.6053 79.366 18.52 79.926 18.44C80.486 18.3547 81.102 18.2613 81.774 18.16L80.99 18.592C80.99 18.08 80.8673 17.704 80.622 17.464C80.3767 17.224 79.966 17.104 79.39 17.104C79.07 17.104 78.7367 17.1813 78.39 17.336C78.0433 17.4907 77.8007 17.7653 77.662 18.16L75.694 17.536C75.9127 16.8213 76.3233 16.24 76.926 15.792C77.5287 15.344 78.35 15.12 79.39 15.12C80.1527 15.12 80.83 15.2373 81.422 15.472C82.014 15.7067 82.462 16.112 82.766 16.688C82.9367 17.008 83.038 17.328 83.07 17.648C83.102 17.968 83.118 18.3253 83.118 18.72V24H81.214V22.224L81.486 22.592C81.0647 23.1733 80.6087 23.5947 80.118 23.856C79.6327 24.112 79.0167 24.24 78.27 24.24ZM78.734 22.528C79.134 22.528 79.47 22.4587 79.742 22.32C80.0193 22.176 80.238 22.0133 80.398 21.832C80.5633 21.6507 80.6753 21.4987 80.734 21.376C80.846 21.1413 80.91 20.8693 80.926 20.56C80.9473 20.2453 80.958 19.984 80.958 19.776L81.598 19.936C80.9527 20.0427 80.43 20.1333 80.03 20.208C79.63 20.2773 79.3073 20.3413 79.062 20.4C78.8167 20.4587 78.6007 20.5227 78.414 20.592C78.2007 20.6773 78.0273 20.7707 77.894 20.872C77.766 20.968 77.67 21.0747 77.606 21.192C77.5473 21.3093 77.518 21.44 77.518 21.584C77.518 21.7813 77.566 21.952 77.662 22.096C77.7633 22.2347 77.9047 22.3413 78.086 22.416C78.2673 22.4907 78.4833 22.528 78.734 22.528Z" fill="white"/>
</svg>
