<svg width="127" height="38" viewBox="0 0 127 38" fill="none" xmlns="http://www.w3.org/2000/svg">
<rect width="127" height="38" rx="8" fill="#FF3030"/>
<path d="M15.16 24L19.032 18.176L15.272 12.48H17.944L20.392 16.32L22.808 12.48H25.496L21.736 18.176L25.592 24H22.92L20.392 20.032L17.848 24H15.16ZM34.566 15.36V24H32.486V18.72L28.582 24H26.854V15.36H28.934V20.464L32.854 15.36H34.566ZM36.1675 25.92V22.32C36.6262 22.32 36.9515 22.16 37.1435 21.84C37.3408 21.52 37.4955 20.9493 37.6075 20.128C37.6715 19.6533 37.7248 19.1547 37.7675 18.632C37.8155 18.1093 37.8555 17.5733 37.8875 17.024C37.9195 16.4747 37.9488 15.92 37.9755 15.36H44.6475V22.32H45.5275V25.92H43.4795V24H38.2155V25.92H36.1675ZM38.9515 22.32H42.4715V17.04H39.8635C39.8475 17.3333 39.8288 17.6267 39.8075 17.92C39.7915 18.2133 39.7702 18.504 39.7435 18.792C39.7222 19.08 39.7008 19.36 39.6795 19.632C39.6582 19.8987 39.6342 20.1547 39.6075 20.4C39.5595 20.8693 39.4928 21.2507 39.4075 21.544C39.3222 21.8373 39.1702 22.096 38.9515 22.32ZM50.3071 24V15.36H58.0191V24H55.8431V17.392H52.4831V24H50.3071ZM64.5006 24.24C63.642 24.24 62.9246 24.04 62.3486 23.64C61.7726 23.24 61.338 22.696 61.0446 22.008C60.7566 21.32 60.6126 20.544 60.6126 19.68C60.6126 18.816 60.7566 18.04 61.0446 17.352C61.3326 16.664 61.7566 16.12 62.3166 15.72C62.8766 15.32 63.5673 15.12 64.3886 15.12C65.2153 15.12 65.9353 15.3173 66.5486 15.712C67.162 16.1067 67.6366 16.648 67.9726 17.336C68.314 18.0187 68.4846 18.8 68.4846 19.68C68.4846 20.544 68.3166 21.32 67.9806 22.008C67.65 22.696 67.186 23.24 66.5886 23.64C65.9913 24.04 65.2953 24.24 64.5006 24.24ZM60.2446 27.84V15.36H62.1646V21.28H62.4366V27.84H60.2446ZM64.1486 22.304C64.618 22.304 65.002 22.1867 65.3006 21.952C65.5993 21.7173 65.8206 21.4027 65.9646 21.008C66.1086 20.608 66.1806 20.1653 66.1806 19.68C66.1806 19.2 66.106 18.7627 65.9566 18.368C65.8073 17.968 65.5753 17.6507 65.2606 17.416C64.9513 17.176 64.554 17.056 64.0686 17.056C63.6153 17.056 63.2473 17.1653 62.9646 17.384C62.6873 17.6027 62.4846 17.9093 62.3566 18.304C62.2286 18.6987 62.1646 19.1573 62.1646 19.68C62.1646 20.2027 62.2286 20.6613 62.3566 21.056C62.4846 21.4507 62.6926 21.7573 62.9806 21.976C63.274 22.1947 63.6633 22.304 64.1486 22.304ZM74.133 24.24C73.2637 24.24 72.501 24.0453 71.845 23.656C71.189 23.2667 70.677 22.7307 70.309 22.048C69.9463 21.36 69.765 20.5707 69.765 19.68C69.765 18.7787 69.9517 17.9867 70.325 17.304C70.6983 16.616 71.213 16.08 71.869 15.696C72.525 15.312 73.2797 15.12 74.133 15.12C75.0023 15.12 75.765 15.3147 76.421 15.704C77.0823 16.0933 77.597 16.632 77.965 17.32C78.333 18.0027 78.517 18.7893 78.517 19.68C78.517 20.576 78.3303 21.368 77.957 22.056C77.589 22.7387 77.0743 23.2747 76.413 23.664C75.757 24.048 74.997 24.24 74.133 24.24ZM74.133 22.208C74.8317 22.208 75.3517 21.9733 75.693 21.504C76.0397 21.0293 76.213 20.4213 76.213 19.68C76.213 18.912 76.037 18.2987 75.685 17.84C75.3383 17.3813 74.821 17.152 74.133 17.152C73.6583 17.152 73.269 17.2587 72.965 17.472C72.661 17.6853 72.4343 17.9813 72.285 18.36C72.141 18.7387 72.069 19.1787 72.069 19.68C72.069 20.4533 72.2423 21.0693 72.589 21.528C72.941 21.9813 73.4557 22.208 74.133 22.208ZM79.6363 25.92V22.32C80.0949 22.32 80.4203 22.16 80.6123 21.84C80.8096 21.52 80.9643 20.9493 81.0763 20.128C81.1403 19.6533 81.1936 19.1547 81.2363 18.632C81.2843 18.1093 81.3243 17.5733 81.3563 17.024C81.3883 16.4747 81.4176 15.92 81.4443 15.36H88.1163V22.32H88.9963V25.92H86.9483V24H81.6843V25.92H79.6363ZM82.4203 22.32H85.9403V17.04H83.3323C83.3163 17.3333 83.2976 17.6267 83.2763 17.92C83.2603 18.2133 83.2389 18.504 83.2123 18.792C83.1909 19.08 83.1696 19.36 83.1483 19.632C83.1269 19.8987 83.1029 20.1547 83.0763 20.4C83.0283 20.8693 82.9616 21.2507 82.8763 21.544C82.7909 21.8373 82.6389 22.096 82.4203 22.32ZM92.9888 24.24C92.3701 24.24 91.8448 24.1227 91.4128 23.888C90.9861 23.648 90.6608 23.3307 90.4368 22.936C90.2181 22.536 90.1088 22.096 90.1088 21.616C90.1088 21.216 90.1701 20.8507 90.2928 20.52C90.4154 20.1893 90.6128 19.8987 90.8848 19.648C91.1621 19.392 91.5328 19.1787 91.9968 19.008C92.3168 18.8907 92.6981 18.7867 93.1408 18.696C93.5834 18.6053 94.0848 18.52 94.6448 18.44C95.2048 18.3547 95.8208 18.2613 96.4928 18.16L95.7088 18.592C95.7088 18.08 95.5861 17.704 95.3408 17.464C95.0954 17.224 94.6848 17.104 94.1088 17.104C93.7888 17.104 93.4554 17.1813 93.1088 17.336C92.7621 17.4907 92.5194 17.7653 92.3808 18.16L90.4128 17.536C90.6314 16.8213 91.0421 16.24 91.6448 15.792C92.2474 15.344 93.0688 15.12 94.1088 15.12C94.8714 15.12 95.5488 15.2373 96.1408 15.472C96.7328 15.7067 97.1808 16.112 97.4848 16.688C97.6554 17.008 97.7568 17.328 97.7888 17.648C97.8208 17.968 97.8368 18.3253 97.8368 18.72V24H95.9328V22.224L96.2048 22.592C95.7834 23.1733 95.3274 23.5947 94.8368 23.856C94.3514 24.112 93.7354 24.24 92.9888 24.24ZM93.4528 22.528C93.8528 22.528 94.1888 22.4587 94.4608 22.32C94.7381 22.176 94.9568 22.0133 95.1168 21.832C95.2821 21.6507 95.3941 21.4987 95.4528 21.376C95.5648 21.1413 95.6288 20.8693 95.6448 20.56C95.6661 20.2453 95.6768 19.984 95.6768 19.776L96.3168 19.936C95.6714 20.0427 95.1488 20.1333 94.7488 20.208C94.3488 20.2773 94.0261 20.3413 93.7808 20.4C93.5354 20.4587 93.3194 20.5227 93.1328 20.592C92.9194 20.6773 92.7461 20.7707 92.6128 20.872C92.4848 20.968 92.3888 21.0747 92.3248 21.192C92.2661 21.3093 92.2368 21.44 92.2368 21.584C92.2368 21.7813 92.2848 21.952 92.3808 22.096C92.4821 22.2347 92.6234 22.3413 92.8048 22.416C92.9861 22.4907 93.2021 22.528 93.4528 22.528ZM98.9569 24L101.965 19.68L99.1649 15.36H101.533L104.141 19.52V15.36H106.061V19.52L108.669 15.36H111.037L108.237 19.68L111.245 24H108.733L106.061 19.84V24H104.141V19.84L101.469 24H98.9569Z" fill="white"/>
</svg>
